<?xml version="1.0" standalone="no"?>
<!DOCTYPE svg PUBLIC "-//W3C//DTD SVG 1.1//EN"
  "http://www.w3.org/Graphics/SVG/1.1/DTD/svg11.dtd">
<svg xmlns="http://www.w3.org/2000/svg" version="1.1"
     width="756px" height="860px" viewBox="-15 -326 756 880">
  <defs>
    <style type="text/css"><![CDATA[
      .markmap-node {
        cursor: pointer;
      }

      .markmap-node-circle {
        fill: #fff;
        stroke-width: 1.5px;
      }

      .markmap-node-text {
        fill:  #000;
        font: 10px sans-serif;
      }

      .markmap-link {
        fill: none;
      }
    ]]></style>
  </defs>
  <g><path class="markmap-link" stroke="#929292" stroke-width="1" d="M450.7744140625,488.75C480.7744140625,488.75 480.7744140625,438.75 510.7744140625,438.75"></path><path class="markmap-link" stroke="#929292" stroke-width="1" d="M450.7744140625,488.75C480.7744140625,488.75 480.7744140625,463.75 510.7744140625,463.75"></path><path class="markmap-link" stroke="#929292" stroke-width="1" d="M450.7744140625,488.75C480.7744140625,488.75 480.7744140625,488.75 510.7744140625,488.75"></path><path class="markmap-link" stroke="#929292" stroke-width="1" d="M450.7744140625,488.75C480.7744140625,488.75 480.7744140625,513.75 510.7744140625,513.75"></path><path class="markmap-link" stroke="#929292" stroke-width="1" d="M450.7744140625,488.75C480.7744140625,488.75 480.7744140625,538.75 510.7744140625,538.75"></path><path class="markmap-link" stroke="#929292" stroke-width="1" d="M434.451171875,383.75C464.451171875,383.75 464.451171875,358.75 494.451171875,358.75"></path><path class="markmap-link" stroke="#929292" stroke-width="1" d="M434.451171875,383.75C464.451171875,383.75 464.451171875,383.75 494.451171875,383.75"></path><path class="markmap-link" stroke="#929292" stroke-width="1" d="M434.451171875,383.75C464.451171875,383.75 464.451171875,408.75 494.451171875,408.75"></path><path class="markmap-link" stroke="#929292" stroke-width="1" d="M487.72265625,291.25C517.72265625,291.25 517.72265625,253.75 547.72265625,253.75"></path><path class="markmap-link" stroke="#929292" stroke-width="1" d="M487.72265625,291.25C517.72265625,291.25 517.72265625,278.75 547.72265625,278.75"></path><path class="markmap-link" stroke="#929292" stroke-width="1" d="M487.72265625,291.25C517.72265625,291.25 517.72265625,303.75 547.72265625,303.75"></path><path class="markmap-link" stroke="#929292" stroke-width="1" d="M487.72265625,291.25C517.72265625,291.25 517.72265625,328.75 547.72265625,328.75"></path><path class="markmap-link" stroke="#929292" stroke-width="1" d="M486.3359375,136.25C516.3359375,136.25 516.3359375,48.75 546.3359375,48.75"></path><path class="markmap-link" stroke="#929292" stroke-width="1" d="M486.3359375,136.25C516.3359375,136.25 516.3359375,73.75 546.3359375,73.75"></path><path class="markmap-link" stroke="#929292" stroke-width="1" d="M486.3359375,136.25C516.3359375,136.25 516.3359375,98.75 546.3359375,98.75"></path><path class="markmap-link" stroke="#929292" stroke-width="1" d="M486.3359375,136.25C516.3359375,136.25 516.3359375,123.75 546.3359375,123.75"></path><path class="markmap-link" stroke="#929292" stroke-width="1" d="M486.3359375,136.25C516.3359375,136.25 516.3359375,148.75 546.3359375,148.75"></path><path class="markmap-link" stroke="#929292" stroke-width="1" d="M486.3359375,136.25C516.3359375,136.25 516.3359375,173.75 546.3359375,173.75"></path><path class="markmap-link" stroke="#929292" stroke-width="1" d="M486.3359375,136.25C516.3359375,136.25 516.3359375,198.75 546.3359375,198.75"></path><path class="markmap-link" stroke="#929292" stroke-width="1" d="M486.3359375,136.25C516.3359375,136.25 516.3359375,223.75 546.3359375,223.75"></path><path class="markmap-link" stroke="#929292" stroke-width="1" d="M450.916015625,-31.25C480.916015625,-31.25 480.916015625,-81.25 510.916015625,-81.25"></path><path class="markmap-link" stroke="#929292" stroke-width="1" d="M450.916015625,-31.25C480.916015625,-31.25 480.916015625,-56.25 510.916015625,-56.25"></path><path class="markmap-link" stroke="#929292" stroke-width="1" d="M450.916015625,-31.25C480.916015625,-31.25 480.916015625,-31.25 510.916015625,-31.25"></path><path class="markmap-link" stroke="#929292" stroke-width="1" d="M450.916015625,-31.25C480.916015625,-31.25 480.916015625,-6.25 510.916015625,-6.25"></path><path class="markmap-link" stroke="#929292" stroke-width="1" d="M450.916015625,-31.25C480.916015625,-31.25 480.916015625,18.75 510.916015625,18.75"></path><path class="markmap-link" stroke="#929292" stroke-width="1" d="M271.7890625,228.75C301.7890625,228.75 301.7890625,-31.25 331.7890625,-31.25"></path><path class="markmap-link" stroke="#929292" stroke-width="1" d="M271.7890625,228.75C301.7890625,228.75 301.7890625,136.25 331.7890625,136.25"></path><path class="markmap-link" stroke="#929292" stroke-width="1" d="M271.7890625,228.75C301.7890625,228.75 301.7890625,291.25 331.7890625,291.25"></path><path class="markmap-link" stroke="#929292" stroke-width="1" d="M271.7890625,228.75C301.7890625,228.75 301.7890625,383.75 331.7890625,383.75"></path><path class="markmap-link" stroke="#929292" stroke-width="1" d="M271.7890625,228.75C301.7890625,228.75 301.7890625,488.75 331.7890625,488.75"></path><path class="markmap-link" stroke="#929292" stroke-width="1" d="M423.6552734375,-123.75C453.6552734375,-123.75 453.6552734375,-136.25 483.6552734375,-136.25"></path><path class="markmap-link" stroke="#929292" stroke-width="1" d="M423.6552734375,-123.75C453.6552734375,-123.75 453.6552734375,-111.25 483.6552734375,-111.25"></path><path class="markmap-link" stroke="#929292" stroke-width="1" d="M269.416015625,-123.75C299.416015625,-123.75 299.416015625,-123.75 329.416015625,-123.75"></path><path class="markmap-link" stroke="#929292" stroke-width="1" d="M261.6181640625,-228.75C291.6181640625,-228.75 291.6181640625,-291.25 321.6181640625,-291.25"></path><path class="markmap-link" stroke="#929292" stroke-width="1" d="M261.6181640625,-228.75C291.6181640625,-228.75 291.6181640625,-266.25 321.6181640625,-266.25"></path><path class="markmap-link" stroke="#929292" stroke-width="1" d="M261.6181640625,-228.75C291.6181640625,-228.75 291.6181640625,-241.25 321.6181640625,-241.25"></path><path class="markmap-link" stroke="#929292" stroke-width="1" d="M261.6181640625,-228.75C291.6181640625,-228.75 291.6181640625,-216.25 321.6181640625,-216.25"></path><path class="markmap-link" stroke="#929292" stroke-width="1" d="M261.6181640625,-228.75C291.6181640625,-228.75 291.6181640625,-191.25 321.6181640625,-191.25"></path><path class="markmap-link" stroke="#929292" stroke-width="1" d="M261.6181640625,-228.75C291.6181640625,-228.75 291.6181640625,-166.25 321.6181640625,-166.25"></path><path class="markmap-link" stroke="#929292" stroke-width="1" d="M141.1142578125,0C171.1142578125,0 171.1142578125,-228.75 201.1142578125,-228.75"></path><path class="markmap-link" stroke="#929292" stroke-width="1" d="M141.1142578125,0C171.1142578125,0 171.1142578125,-123.75 201.1142578125,-123.75"></path><path class="markmap-link" stroke="#929292" stroke-width="1" d="M141.1142578125,0C171.1142578125,0 171.1142578125,228.75 201.1142578125,228.75"></path><g class="markmap-node" transform="translate(510.7744140625,538.75)"><rect class="markmap-node-rect" y="-10" x="-1" width="97.6748046875" height="20" fill="#dfdfdf" rx="10" ry="10" stroke="#929292" stroke-width="1"></rect><circle class="markmap-node-circle" cx="95.6748046875" stroke="#929292" r="4.5" style="display: none;"></circle><text class="markmap-node-text" x="10" dy="3" text-anchor="start" style="fill-opacity: 1;">Развертывание</text></g><g class="markmap-node" transform="translate(510.7744140625,513.75)"><rect class="markmap-node-rect" y="-10" x="-1" width="107.0791015625" height="20" fill="#dfdfdf" rx="10" ry="10" stroke="#929292" stroke-width="1"></rect><circle class="markmap-node-circle" cx="105.0791015625" stroke="#929292" r="4.5" style="display: none;"></circle><text class="markmap-node-text" x="10" dy="3" text-anchor="start" style="fill-opacity: 1;">Конструирование</text></g><g class="markmap-node" transform="translate(510.7744140625,488.75)"><rect class="markmap-node-rect" y="-10" x="-1" width="100.82421875" height="20" fill="#dfdfdf" rx="10" ry="10" stroke="#929292" stroke-width="1"></rect><circle class="markmap-node-circle" cx="98.82421875" stroke="#929292" r="4.5" style="display: none;"></circle><text class="markmap-node-text" x="10" dy="3" text-anchor="start" style="fill-opacity: 1;">Моделирование</text></g><g class="markmap-node" transform="translate(510.7744140625,463.75)"><rect class="markmap-node-rect" y="-10" x="-1" width="94.2470703125" height="20" fill="#dfdfdf" rx="10" ry="10" stroke="#929292" stroke-width="1"></rect><circle class="markmap-node-circle" cx="92.2470703125" stroke="#929292" r="4.5" style="display: none;"></circle><text class="markmap-node-text" x="10" dy="3" text-anchor="start" style="fill-opacity: 1;">Планирование</text></g><g class="markmap-node" transform="translate(510.7744140625,438.75)"><rect class="markmap-node-rect" y="-10" x="-1" width="78.6318359375" height="20" fill="#dfdfdf" rx="10" ry="10" stroke="#929292" stroke-width="1"></rect><circle class="markmap-node-circle" cx="76.6318359375" stroke="#929292" r="4.5" style="display: none;"></circle><text class="markmap-node-text" x="10" dy="3" text-anchor="start" style="fill-opacity: 1;">Подготовка</text></g><g class="markmap-node" transform="translate(331.7890625,488.75)"><rect class="markmap-node-rect" y="-10" x="-1" width="120.9853515625" height="20" fill="#dfdfdf" rx="10" ry="10" stroke="#929292" stroke-width="1"></rect><circle class="markmap-node-circle" cx="118.9853515625" stroke="#929292" r="4.5"></circle><text class="markmap-node-text" x="10" dy="3" text-anchor="start" style="fill-opacity: 1;">Базис по Прессману</text></g><g class="markmap-node" transform="translate(494.451171875,408.75)"><rect class="markmap-node-rect" y="-10" x="-1" width="59.5498046875" height="20" fill="#dfdfdf" rx="10" ry="10" stroke="#929292" stroke-width="1"></rect><circle class="markmap-node-circle" cx="57.5498046875" stroke="#929292" r="4.5" style="display: none;"></circle><text class="markmap-node-text" x="10" dy="3" text-anchor="start" style="fill-opacity: 1;">Задача</text></g><g class="markmap-node" transform="translate(494.451171875,383.75)"><rect class="markmap-node-rect" y="-10" x="-1" width="69.9599609375" height="20" fill="#dfdfdf" rx="10" ry="10" stroke="#929292" stroke-width="1"></rect><circle class="markmap-node-circle" cx="67.9599609375" stroke="#929292" r="4.5" style="display: none;"></circle><text class="markmap-node-text" x="10" dy="3" text-anchor="start" style="fill-opacity: 1;">Действие</text></g><g class="markmap-node" transform="translate(494.451171875,358.75)"><rect class="markmap-node-rect" y="-10" x="-1" width="90.365234375" height="20" fill="#dfdfdf" rx="10" ry="10" stroke="#929292" stroke-width="1"></rect><circle class="markmap-node-circle" cx="88.365234375" stroke="#929292" r="4.5" style="display: none;"></circle><text class="markmap-node-text" x="10" dy="3" text-anchor="start" style="fill-opacity: 1;">Деятельность</text></g><g class="markmap-node" transform="translate(331.7890625,383.75)"><rect class="markmap-node-rect" y="-10" x="-1" width="104.662109375" height="20" fill="#dfdfdf" rx="10" ry="10" stroke="#929292" stroke-width="1"></rect><circle class="markmap-node-circle" cx="102.662109375" stroke="#929292" r="4.5"></circle><text class="markmap-node-text" x="10" dy="3" text-anchor="start" style="fill-opacity: 1;">Базис процессов</text></g><g class="markmap-node" transform="translate(547.72265625,328.75)"><rect class="markmap-node-rect" y="-10" x="-1" width="71.5810546875" height="20" fill="#dfdfdf" rx="10" ry="10" stroke="#929292" stroke-width="1"></rect><circle class="markmap-node-circle" cx="69.5810546875" stroke="#929292" r="4.5" style="display: none;"></circle><text class="markmap-node-text" x="10" dy="3" text-anchor="start" style="fill-opacity: 1;">Обучения</text></g><g class="markmap-node" transform="translate(547.72265625,303.75)"><rect class="markmap-node-rect" y="-10" x="-1" width="125.4140625" height="20" fill="#dfdfdf" rx="10" ry="10" stroke="#929292" stroke-width="1"></rect><circle class="markmap-node-circle" cx="123.4140625" stroke="#929292" r="4.5" style="display: none;"></circle><text class="markmap-node-text" x="10" dy="3" text-anchor="start" style="fill-opacity: 1;">Усовершенствования</text></g><g class="markmap-node" transform="translate(547.72265625,278.75)"><rect class="markmap-node-rect" y="-10" x="-1" width="151.0390625" height="20" fill="#dfdfdf" rx="10" ry="10" stroke="#929292" stroke-width="1"></rect><circle class="markmap-node-circle" cx="149.0390625" stroke="#929292" r="4.5" style="display: none;"></circle><text class="markmap-node-text" x="10" dy="3" text-anchor="start" style="fill-opacity: 1;">Создания инфраструктуры</text></g><g class="markmap-node" transform="translate(547.72265625,253.75)"><rect class="markmap-node-rect" y="-10" x="-1" width="81.4443359375" height="20" fill="#dfdfdf" rx="10" ry="10" stroke="#929292" stroke-width="1"></rect><circle class="markmap-node-circle" cx="79.4443359375" stroke="#929292" r="4.5" style="display: none;"></circle><text class="markmap-node-text" x="10" dy="3" text-anchor="start" style="fill-opacity: 1;">Управления</text></g><g class="markmap-node" transform="translate(331.7890625,291.25)"><rect class="markmap-node-rect" y="-10" x="-1" width="157.93359375" height="20" fill="#dfdfdf" rx="10" ry="10" stroke="#929292" stroke-width="1"></rect><circle class="markmap-node-circle" cx="155.93359375" stroke="#929292" r="4.5"></circle><text class="markmap-node-text" x="10" dy="3" text-anchor="start" style="fill-opacity: 1;">Организационные процессы</text></g><g class="markmap-node" transform="translate(546.3359375,223.75)"><rect class="markmap-node-rect" y="-10" x="-1" width="118.099609375" height="20" fill="#dfdfdf" rx="10" ry="10" stroke="#929292" stroke-width="1"></rect><circle class="markmap-node-circle" cx="116.099609375" stroke="#929292" r="4.5" style="display: none;"></circle><text class="markmap-node-text" x="10" dy="3" text-anchor="start" style="fill-opacity: 1;">Решение проблемы</text></g><g class="markmap-node" transform="translate(546.3359375,198.75)"><rect class="markmap-node-rect" y="-10" x="-1" width="53.2265625" height="20" fill="#dfdfdf" rx="10" ry="10" stroke="#929292" stroke-width="1"></rect><circle class="markmap-node-circle" cx="51.2265625" stroke="#929292" r="4.5" style="display: none;"></circle><text class="markmap-node-text" x="10" dy="3" text-anchor="start" style="fill-opacity: 1;">Аудит</text></g><g class="markmap-node" transform="translate(546.3359375,173.75)"><rect class="markmap-node-rect" y="-10" x="-1" width="128.294921875" height="20" fill="#dfdfdf" rx="10" ry="10" stroke="#929292" stroke-width="1"></rect><circle class="markmap-node-circle" cx="126.294921875" stroke="#929292" r="4.5" style="display: none;"></circle><text class="markmap-node-text" x="10" dy="3" text-anchor="start" style="fill-opacity: 1;">Совместная проверка</text></g><g class="markmap-node" transform="translate(546.3359375,148.75)"><rect class="markmap-node-rect" y="-10" x="-1" width="78.8173828125" height="20" fill="#dfdfdf" rx="10" ry="10" stroke="#929292" stroke-width="1"></rect><circle class="markmap-node-circle" cx="76.8173828125" stroke="#929292" r="4.5" style="display: none;"></circle><text class="markmap-node-text" x="10" dy="3" text-anchor="start" style="fill-opacity: 1;">Аттестация</text></g><g class="markmap-node" transform="translate(546.3359375,123.75)"><rect class="markmap-node-rect" y="-10" x="-1" width="90.0771484375" height="20" fill="#dfdfdf" rx="10" ry="10" stroke="#929292" stroke-width="1"></rect><circle class="markmap-node-circle" cx="88.0771484375" stroke="#929292" r="4.5" style="display: none;"></circle><text class="markmap-node-text" x="10" dy="3" text-anchor="start" style="fill-opacity: 1;">Верификация</text></g><g class="markmap-node" transform="translate(546.3359375,98.75)"><rect class="markmap-node-rect" y="-10" x="-1" width="131.869140625" height="20" fill="#dfdfdf" rx="10" ry="10" stroke="#929292" stroke-width="1"></rect><circle class="markmap-node-circle" cx="129.869140625" stroke="#929292" r="4.5" style="display: none;"></circle><text class="markmap-node-text" x="10" dy="3" text-anchor="start" style="fill-opacity: 1;">Обеспечение качества</text></g><g class="markmap-node" transform="translate(546.3359375,73.75)"><rect class="markmap-node-rect" y="-10" x="-1" width="155.873046875" height="20" fill="#dfdfdf" rx="10" ry="10" stroke="#929292" stroke-width="1"></rect><circle class="markmap-node-circle" cx="153.873046875" stroke="#929292" r="4.5" style="display: none;"></circle><text class="markmap-node-text" x="10" dy="3" text-anchor="start" style="fill-opacity: 1;">Управление конфигурацией</text></g><g class="markmap-node" transform="translate(546.3359375,48.75)"><rect class="markmap-node-rect" y="-10" x="-1" width="114.5009765625" height="20" fill="#dfdfdf" rx="10" ry="10" stroke="#929292" stroke-width="1"></rect><circle class="markmap-node-circle" cx="112.5009765625" stroke="#929292" r="4.5" style="display: none;"></circle><text class="markmap-node-text" x="10" dy="3" text-anchor="start" style="fill-opacity: 1;">Документирование</text></g><g class="markmap-node" transform="translate(331.7890625,136.25)"><rect class="markmap-node-rect" y="-10" x="-1" width="156.546875" height="20" fill="#dfdfdf" rx="10" ry="10" stroke="#929292" stroke-width="1"></rect><circle class="markmap-node-circle" cx="154.546875" stroke="#929292" r="4.5"></circle><text class="markmap-node-text" x="10" dy="3" text-anchor="start" style="fill-opacity: 1;">Вспомогательные процессы</text></g><g class="markmap-node" transform="translate(510.916015625,18.75)"><rect class="markmap-node-rect" y="-10" x="-1" width="100.7265625" height="20" fill="#dfdfdf" rx="10" ry="10" stroke="#929292" stroke-width="1"></rect><circle class="markmap-node-circle" cx="98.7265625" stroke="#929292" r="4.5" style="display: none;"></circle><text class="markmap-node-text" x="10" dy="3" text-anchor="start" style="fill-opacity: 1;">Сопровождение</text></g><g class="markmap-node" transform="translate(510.916015625,-6.25)"><rect class="markmap-node-rect" y="-10" x="-1" width="90.912109375" height="20" fill="#dfdfdf" rx="10" ry="10" stroke="#929292" stroke-width="1"></rect><circle class="markmap-node-circle" cx="88.912109375" stroke="#929292" r="4.5" style="display: none;"></circle><text class="markmap-node-text" x="10" dy="3" text-anchor="start" style="fill-opacity: 1;">Эксплуатация</text></g><g class="markmap-node" transform="translate(510.916015625,-31.25)"><rect class="markmap-node-rect" y="-10" x="-1" width="79.30078125" height="20" fill="#dfdfdf" rx="10" ry="10" stroke="#929292" stroke-width="1"></rect><circle class="markmap-node-circle" cx="77.30078125" stroke="#929292" r="4.5" style="display: none;"></circle><text class="markmap-node-text" x="10" dy="3" text-anchor="start" style="fill-opacity: 1;">Разработка</text></g><g class="markmap-node" transform="translate(510.916015625,-56.25)"><rect class="markmap-node-rect" y="-10" x="-1" width="69.2470703125" height="20" fill="#dfdfdf" rx="10" ry="10" stroke="#929292" stroke-width="1"></rect><circle class="markmap-node-circle" cx="67.2470703125" stroke="#929292" r="4.5" style="display: none;"></circle><text class="markmap-node-text" x="10" dy="3" text-anchor="start" style="fill-opacity: 1;">Поставка</text></g><g class="markmap-node" transform="translate(510.916015625,-81.25)"><rect class="markmap-node-rect" y="-10" x="-1" width="52.23046875" height="20" fill="#dfdfdf" rx="10" ry="10" stroke="#929292" stroke-width="1"></rect><circle class="markmap-node-circle" cx="50.23046875" stroke="#929292" r="4.5" style="display: none;"></circle><text class="markmap-node-text" x="10" dy="3" text-anchor="start" style="fill-opacity: 1;">Заказ</text></g><g class="markmap-node" transform="translate(331.7890625,-31.25)"><rect class="markmap-node-rect" y="-10" x="-1" width="121.126953125" height="20" fill="#dfdfdf" rx="10" ry="10" stroke="#929292" stroke-width="1"></rect><circle class="markmap-node-circle" cx="119.126953125" stroke="#929292" r="4.5"></circle><text class="markmap-node-text" x="10" dy="3" text-anchor="start" style="fill-opacity: 1;">Основные процессы</text></g><g class="markmap-node" transform="translate(201.1142578125,228.75)"><rect class="markmap-node-rect" y="-10" x="-1" width="72.6748046875" height="20" fill="#dfdfdf" rx="10" ry="10" stroke="#929292" stroke-width="1"></rect><circle class="markmap-node-circle" cx="70.6748046875" stroke="#929292" r="4.5"></circle><text class="markmap-node-text" x="10" dy="3" text-anchor="start" style="fill-opacity: 1;">Процессы</text></g><g class="markmap-node" transform="translate(483.6552734375,-111.25)"><rect class="markmap-node-rect" y="-10" x="-1" width="105.0771484375" height="20" fill="#dfdfdf" rx="10" ry="10" stroke="#929292" stroke-width="1"></rect><circle class="markmap-node-circle" cx="103.0771484375" stroke="#929292" r="4.5" style="display: none;"></circle><text class="markmap-node-text" x="10" dy="3" text-anchor="start" style="fill-opacity: 1;">Генераторы кода</text></g><g class="markmap-node" transform="translate(483.6552734375,-136.25)"><rect class="markmap-node-rect" y="-10" x="-1" width="244.4033203125" height="20" fill="#dfdfdf" rx="10" ry="10" stroke="#929292" stroke-width="1"></rect><circle class="markmap-node-circle" cx="242.4033203125" stroke="#929292" r="4.5" style="display: none;"></circle><text class="markmap-node-text" x="10" dy="3" text-anchor="start" style="fill-opacity: 1;">Инструменты редактирования программного…</text></g><g class="markmap-node" transform="translate(329.416015625,-123.75)"><rect class="markmap-node-rect" y="-10" x="-1" width="96.2392578125" height="20" fill="#dfdfdf" rx="10" ry="10" stroke="#929292" stroke-width="1"></rect><circle class="markmap-node-circle" cx="94.2392578125" stroke="#929292" r="4.5"></circle><text class="markmap-node-text" x="10" dy="3" text-anchor="start" style="fill-opacity: 1;">CASE-системы</text></g><g class="markmap-node" transform="translate(201.1142578125,-123.75)"><rect class="markmap-node-rect" y="-10" x="-1" width="70.3017578125" height="20" fill="#dfdfdf" rx="10" ry="10" stroke="#929292" stroke-width="1"></rect><circle class="markmap-node-circle" cx="68.3017578125" stroke="#929292" r="4.5"></circle><text class="markmap-node-text" x="10" dy="3" text-anchor="start" style="fill-opacity: 1;">Средства</text></g><g class="markmap-node" transform="translate(321.6181640625,-166.25)"><rect class="markmap-node-rect" y="-10" x="-1" width="243.20703125" height="20" fill="#dfdfdf" rx="10" ry="10" stroke="#929292" stroke-width="1"></rect><circle class="markmap-node-circle" cx="241.20703125" stroke="#929292" r="4.5" style="display: none;"></circle><text class="markmap-node-text" x="10" dy="3" text-anchor="start" style="fill-opacity: 1;">Сопровождение ПО уже используемого зака…</text></g><g class="markmap-node" transform="translate(321.6181640625,-191.25)"><rect class="markmap-node-rect" y="-10" x="-1" width="90.8291015625" height="20" fill="#dfdfdf" rx="10" ry="10" stroke="#929292" stroke-width="1"></rect><circle class="markmap-node-circle" cx="88.8291015625" stroke="#929292" r="4.5" style="display: none;"></circle><text class="markmap-node-text" x="10" dy="3" text-anchor="start" style="fill-opacity: 1;">Тестирование</text></g><g class="markmap-node" transform="translate(321.6181640625,-216.25)"><rect class="markmap-node-rect" y="-10" x="-1" width="233.470703125" height="20" fill="#dfdfdf" rx="10" ry="10" stroke="#929292" stroke-width="1"></rect><circle class="markmap-node-circle" cx="231.470703125" stroke="#929292" r="4.5" style="display: none;"></circle><text class="markmap-node-text" x="10" dy="3" text-anchor="start" style="fill-opacity: 1;">Конструирование программного текста (ко…</text></g><g class="markmap-node" transform="translate(321.6181640625,-241.25)"><rect class="markmap-node-rect" y="-10" x="-1" width="232.9677734375" height="20" fill="#dfdfdf" rx="10" ry="10" stroke="#929292" stroke-width="1"></rect><circle class="markmap-node-circle" cx="230.9677734375" stroke="#929292" r="4.5" style="display: none;"></circle><text class="markmap-node-text" x="10" dy="3" text-anchor="start" style="fill-opacity: 1;">Проектирование структур программ (и стр…</text></g><g class="markmap-node" transform="translate(321.6181640625,-266.25)"><rect class="markmap-node-rect" y="-10" x="-1" width="239.1640625" height="20" fill="#dfdfdf" rx="10" ry="10" stroke="#929292" stroke-width="1"></rect><circle class="markmap-node-circle" cx="237.1640625" stroke="#929292" r="4.5" style="display: none;"></circle><text class="markmap-node-text" x="10" dy="3" text-anchor="start" style="fill-opacity: 1;">Анализ требований к компьютерной систем…</text></g><g class="markmap-node" transform="translate(321.6181640625,-291.25)"><rect class="markmap-node-rect" y="-10" x="-1" width="240.5947265625" height="20" fill="#dfdfdf" rx="10" ry="10" stroke="#929292" stroke-width="1"></rect><circle class="markmap-node-circle" cx="238.5947265625" stroke="#929292" r="4.5" style="display: none;"></circle><text class="markmap-node-text" x="10" dy="3" text-anchor="start" style="fill-opacity: 1;">Планирование и оценка программного прое…</text></g><g class="markmap-node" transform="translate(201.1142578125,-228.75)"><rect class="markmap-node-rect" y="-10" x="-1" width="62.50390625" height="20" fill="#dfdfdf" rx="10" ry="10" stroke="#929292" stroke-width="1"></rect><circle class="markmap-node-circle" cx="60.50390625" stroke="#929292" r="4.5"></circle><text class="markmap-node-text" x="10" dy="3" text-anchor="start" style="fill-opacity: 1;">Методы</text></g><g class="markmap-node" transform="translate(0,0)"><rect class="markmap-node-rect" y="-10" x="-1" width="143.1142578125" height="20" fill="#dfdfdf" rx="10" ry="10" stroke="#929292" stroke-width="1"></rect><circle class="markmap-node-circle" cx="141.1142578125" stroke="#929292" r="4.5"></circle><text class="markmap-node-text" x="10" dy="3" text-anchor="start" style="fill-opacity: 1;">Программная инженерия</text></g></g>
</svg>